<mxfile host="app.diagrams.net" modified="2023-11-03T04:21:57.079Z" agent="Mozilla/5.0 (Macintosh; Intel Mac OS X 10_15_7) AppleWebKit/537.36 (KHTML, like Gecko) Chrome/118.0.0.0 Safari/537.36" version="22.0.8" etag="NcpuuhiOANd4ylZVfS4d" type="github">
  <diagram name="第 1 页" id="0wEXUCPHrVY-mu3ncdh_">
    <mxGraphModel>
      <root>
        <mxCell id="0" />
        <mxCell id="1" parent="0" />
      </root>
    </mxGraphModel>
  </diagram>
</mxfile>
